<mxfile host="app.diagrams.net" modified="2023-04-04T06:20:42.711Z" agent="Mozilla/5.0 (Windows NT 10.0; Win64; x64) AppleWebKit/537.36 (KHTML, like Gecko) Chrome/111.0.0.0 Safari/537.36" version="21.1.2" etag="2M8sNNc5E_QwkEFSonsh" type="github">
  <diagram name="Trang-1" id="Hn7m62LSbSQmLiM9xhgf">
    <mxGraphModel>
      <root>
        <mxCell id="0" />
        <mxCell id="1" parent="0" />
      </root>
    </mxGraphModel>
  </diagram>
</mxfile>
